<?xml version="1.0" encoding="utf-8"?>
<!-- Generator: Adobe Illustrator 25.0.0, SVG Export Plug-In . SVG Version: 6.00 Build 0)  -->
<svg version="1.1" id="Layer_1" xmlns="http://www.w3.org/2000/svg" xmlns:xlink="http://www.w3.org/1999/xlink" x="0px" y="0px"
	 viewBox="0 0 1000 1000" style="enable-background:new 0 0 1000 1000;" xml:space="preserve">
<style type="text/css">
	.st0{fill:#FEFEFE;}
	.st1{fill:#B21D1C;}
	.st2{fill:#1D1D1B;}
	.st3{fill:#B31D1C;}
	.st4{fill:#343432;}
	.st5{fill:#343433;}
	.st6{fill:#353533;}
	.st7{fill:#21211F;}
	.st8{fill:#20201E;}
	.st9{fill:#212220;}
	.st10{fill:#1F201D;}
	.st11{fill:#222220;}
	.st12{fill:#242522;}
	.st13{fill:#242422;}
	.st14{fill:#252624;}
	.st15{fill:#232421;}
	.st16{fill:#262624;}
	.st17{fill:#252524;}
	.st18{fill:#272725;}
	.st19{fill:#252623;}
	.st20{fill:#693636;}
	.st21{fill:#1E1C1B;}
	.st22{fill:#4B1614;}
	.st23{fill:#622B2B;}
	.st24{fill:#F3D2D2;}
	.st25{fill:#4F1C1C;}
	.st26{fill:#5A1D1C;}
	.st27{fill:#FEFDFD;}
	.st28{fill:#FDFDFD;}
	.st29{fill:#FCFCFC;}
	.st30{fill:#252523;}
</style>
<g>
	<path class="st0" d="M999.87,500.67c0,164.41-0.03,328.81,0.13,493.22c0,4.99-1.13,6.12-6.16,6.11
		c-329.23-0.14-658.46-0.14-987.69,0c-5.02,0-6.16-1.12-6.16-6.11C0.14,664.63,0.14,335.37,0,6.11C0,1.12,1.13,0,6.16,0
		c329.23,0.14,658.46,0.14,987.69,0c5.02,0,6.16,1.12,6.16,6.11C999.85,170.97,999.87,335.82,999.87,500.67z"/>
	<path class="st1" d="M520.51,483.33c-15.72,1.55-31.07-0.91-46.18-4.8c-71.58-18.42-121.78-80.38-128.78-151.67
		c-3.01-30.63,1.18-60.01,13.3-88.31c0.76-1.76,2.04-3.51,1.51-5.67c1.98-8.58,7.32-15.48,11.96-22.62
		c21.91-33.74,52.54-56.41,90.58-69.48c1.92-0.66,3.82-1.16,5.84-1.22c2.28,0.16,4.28-0.6,6.12-1.88c1.56-0.64,3.21-0.78,4.87-0.85
		c3.2,0.37,5.94-1.22,8.86-2.07c2.59-0.26,5.19-0.13,7.78-0.17c2,0,3.99,0,5.98,0c11.04-0.17,22.06,0.19,33.06,1.16
		c13.78,1.12,26.47,5.73,39.51,10.18c26.55,9.07,48.07,24.75,66.51,44.94c12.2,13.35,21.74,28.39,29.4,45.15
		c23.06,50.42,21.57,100.11-0.49,150.09c-1.02,2.31-4.11,3.88-2.91,7.09c-2.08,8.66-7.74,15.42-12.78,22.29
		c-23.7,32.31-55.39,53.43-93.89,64.67c-1.95,0.57-3.91,0.89-5.92,1.02c-5.28,0.99-10.66,1.21-15.94,2.14
		c-0.92,0.01-1.84,0.02-2.75,0.03C530.94,482.24,525.73,482.27,520.51,483.33z"/>
	<path class="st2" d="M469.12,141.08c-16.62,4.21-31.78,11.56-46.08,20.86c-25.75,16.75-45.41,38.83-59.1,66.21
		c-0.87,1.74-2.37,3.16-3.59,4.73c-9.94,3.81-18.22,10.23-26.16,17c-22.4,19.09-42.96,40.01-62.15,62.28
		c-2.62,3.05-3.14,4.83,0.05,8.08c11.67,11.92,22.38,25.27,36.9,33.55c9.56,5.45,13.78,12.81,17.55,22.09
		c8.93,21.98,19.2,43.33,34.23,62.05c4.17,5.2,8.99,9.72,14.85,14.01c-2.38,1.51-4.18,0.74-5.95,0.2
		c-71.02-22.06-127.8-63.4-170.27-124.11c-1.44-2.05-2.46-3.73-0.65-6.39c52.48-77.07,117.08-139.89,206.84-172.78
		c29.93-10.97,60.97-16.65,93.05-15.56c0.73,2.57-1.92,1.47-2.68,2.43c-2.63,0.12-5.25,0.24-7.88,0.35
		c-2.71,0.88-5.55,1.3-8.23,2.31c-1.7,0.14-3.41,0.29-5.11,0.43C473.11,140.13,470.98,140.27,469.12,141.08z"/>
	<path class="st2" d="M554.96,479.64c22.91-5.56,43.81-15.28,62.73-29.34c20.1-14.95,36.03-33.35,47.79-55.36
		c0.38-0.72,1.29-1.17,1.95-1.74c11.21-4.67,20.84-11.87,30.49-18.99c19.74-14.54,38.55-30.16,56.38-46.98
		c2.98-2.81,3.51-4.68,0.78-8.13c-10.33-13.08-19.59-27.5-33.19-37.16c-9.04-6.42-12.52-14.22-15.1-23.84
		c-4.08-15.18-9.51-29.93-16.13-44.22c-6.15-13.29-12.96-26.14-24.42-36.07c2.86-1.49,5.02-0.25,7.17,0.69
		c67.55,29.32,119.03,76.15,154.71,140.19c1.43,2.56,1.9,4.49-0.28,7.08c-57.87,68.63-126.15,122.39-214.21,147.72
		c-16.68,4.8-33.73,8.38-51.26,8.64C555.88,483.16,555.88,483.16,554.96,479.64z"/>
	<path class="st3" d="M303.61,805.01c-12.59,13.14-27.43,18.75-44.38,19.16c-26.92,0.66-44.67-15.29-44.68-40.07
		c-0.01-24.63,15.25-40.45,41.95-43.8c11.72-1.47,23.39-3.35,35.07-5.16c5.65-0.88,10.35-3.16,11.19-9.58
		c0.8-6.13-3.09-12.29-9.38-14.5c-8.65-3.03-17.47-3.1-26.29-0.56c-6.68,1.92-10.56,6.72-11.95,13.11c-0.81,3.69-2.37,4.6-5.82,4.53
		c-8.48-0.18-16.97-0.16-25.45-0.01c-3.56,0.07-4.99-0.38-4.42-4.73c3.12-23.84,17.15-38.4,41.16-41.78
		c17.14-2.41,34.24-2.99,50.94,2.73c18.59,6.37,26.87,17.91,26.88,37.37c0.02,23.73-0.16,47.47,0.09,71.2
		c0.08,7.8-0.58,15.97,6.89,21.91c2.12,1.69,2.53,5.56-2.59,5.54c-10.72-0.04-21.44-0.11-32.15,0.06c-2.88,0.04-4.03-1.31-4.56-3.69
		C305.31,813.29,304.62,809.82,303.61,805.01z"/>
	<path class="st1" d="M266.59,596.42c6.99-24.01,14.03-48.01,20.93-72.05c0.96-3.36,2.29-5.88,5.7-7.54
		c13.77-6.72,27.4-13.71,41.5-20.82c0.86,4.4-1.57,7.82-2.75,11.31c-15.04,44.43-30.32,88.78-45.42,133.2
		c-1.45,4.28-3.35,6.45-8.45,6.16c-9.12-0.52-18.3-0.26-27.45-0.08c-3.33,0.07-5.22-0.76-6.38-4.19
		c-20.59-61.01-41.3-121.97-61.97-182.95c-0.41-1.21-0.64-2.47-1.1-4.25c13.58,0,26.73,0.05,39.87-0.04
		c2.78-0.02,3.68,1.14,4.41,3.72c12.18,43.02,24.48,86,36.86,128.96c0.59,2.04-0.54,4.53,1.59,6.15
		C265.31,594.27,264.08,597.37,266.59,596.42z"/>
	<path class="st2" d="M660.75,604.33c-0.26-0.41-0.22-0.8,0.11-1.16c11.47-1.88,22.59,0.97,33.8,2.54c2.33,0.33,3.79,2.11,4.92,4.09
		c3.65,9.31,11.02,12.61,20.35,11.46c23.3-2.88,31.59-15.12,30.28-35.07c-0.26-3.96-1.89-4.16-5.2-3.19
		c-8.75,2.59-17.63,4.68-26.87,4.56c-2.39-1.61-2.71-3.94-1.89-6.38c2.18-6.44,2.72-13.12,3.32-19.81
		c6.76-1.03,13.52-2.02,20.27-3.12c6.15-1,11.2-3.4,11.85-10.49c0.59-6.46-3.42-12.4-10.14-14.8c-2.7-0.97-5.61-1.35-8.42-2
		c-1.72-0.63-3.53-0.5-5.27-0.33c-5.59,0.56-9.57-0.18-10.74-7.1c-0.64-3.83-4.24-6.95-5.18-11.21c-0.68-3.09-4.1-1.7-6.33-2.21
		c-4.54-1.03-4.94-2.32-1.95-6.48c18.08-3.78,36.16-4.33,54.04,0.9c21.85,6.39,31.06,18.8,31.1,41.34
		c0.04,23.96-0.12,47.92,0.08,71.88c0.07,8.25-1.02,16.92,7.15,23.1c1.87,1.42,2.12,5.6-2.81,5.59c-11.17-0.03-22.34-0.1-33.5,0.04
		c-2.84,0.04-4.01-1.23-4.53-3.68c-0.78-3.68-1.6-7.35-2.44-11.16c-2.4-0.57-3.13,1.81-4.5,2.99
		c-18.27,15.71-39.23,19.34-61.85,12.45c-16.03-4.88-25.34-18.27-25.68-34.33C659.87,609.95,659.8,607.14,660.75,604.33z"/>
	<path class="st2" d="M612.68,731.12c16.25-21.51,44.82-17.75,56.33,0.42c5.59-6.35,11.2-12.35,20.03-14.22
		c23.38-4.94,42.09,9.7,42.13,33.36c0.04,21.07-0.11,42.13,0.1,63.2c0.05,4.56-0.52,7.05-6.01,6.38
		c-6.77-0.82-15.92,2.82-19.78-1.47c-3.38-3.76-1.08-12.64-1.12-19.26c-0.07-12.64,0.01-25.28-0.04-37.92
		c-0.01-2.87-0.14-5.77-0.53-8.61c-1.24-9.07-6.1-13.74-14.15-13.81c-9.03-0.08-15.57,5.06-16.77,13.83
		c-0.69,5.02-0.6,10.16-0.63,15.25c-0.07,15.52-0.2,31.05,0.08,46.56c0.08,4.47-1.32,5.71-5.64,5.42
		c-5.56-0.36-11.18-0.38-16.73,0.01c-4.33,0.3-5.13-1.32-5.09-5.28c0.2-19.95,0.2-39.91,0.05-59.87
		c-0.1-12.64-8.97-18.76-21.21-15.09c-6.11,1.83-8.9,6.16-9.96,12.05c-1.74,9.69-0.76,19.47-0.9,29.2
		c-0.17,11.31-0.25,22.62,0.07,33.92c0.12,4.22-1.17,5.32-5.24,5.06c-5.56-0.35-11.18-0.4-16.73,0.01
		c-4.42,0.32-5.05-1.47-5.04-5.33c0.15-30.16,0.15-60.31,0-90.47c-0.02-3.92,0.8-5.89,5.14-5.3c1.97,0.27,4.01,0.04,6.02,0.05
		c4.46,0.02,9.54-1.27,13.23,0.43C614.44,721.55,610.31,727.47,612.68,731.12z"/>
	<path class="st2" d="M460.76,809.37c-12.24,11.3-25.97,15.53-41.73,12.44c-13.58-2.66-22.1-11.74-23.46-24.56
		c-1.6-15.11,5.27-27.48,18.32-32.91c8.56-3.56,17.81-3.76,26.76-5.35c3.72-0.66,7.54-0.84,11.24-1.59
		c4.04-0.82,8.02-2.23,8.42-7.17c0.4-4.95-2-8.49-6.54-10.55c-11.45-5.18-23.39-1.07-28.59,10.21c-1.08,2.34-2.42,2.13-4.1,2.14
		c-6.02,0.04-12.06-0.21-18.07,0.1c-4.12,0.21-4.11-1.64-3.7-4.81c1.82-14.04,10.32-24.6,23.9-28.1
		c14.47-3.73,29.12-4.25,43.51,0.61c13.81,4.67,19.85,12.74,20.03,27.15c0.23,17.73,0.03,35.47,0.08,53.2
		c0.02,5.52-0.03,10.91,4.65,15.33c2.56,2.42,1.74,4.79-2.52,4.68c-4.68-0.12-9.37-0.03-14.06-0.03
		C463.91,820.16,463.91,820.16,460.76,809.37z"/>
	<path class="st2" d="M470.45,608.49c0.1,4.42,0.04,8.85,0.33,13.26c0.45,6.8,0.2,13.93,6.85,18.47c1.91,1.3,1.3,3.27,0.99,4.84
		c-0.42,2.1-2.51,1.35-3.93,1.36c-10.03,0.06-20.07-0.22-30.09,0.14c-4.85,0.18-7.55-1-8-6.15c-0.26-2.99-1.22-5.92-2.06-9.81
		c-9.76,9.94-20.69,16.32-33.78,18.49c-9.27,1.53-18.59,1.83-27.81-0.5c-17.96-4.53-28.39-16.44-30.7-34.91
		c-2.27-18.22,6.46-35.5,21.86-43.58c12.98-6.81,27.47-6.92,41.42-9.37c4.58-0.81,9.26-1.04,13.89-1.54
		c4.75-1.08,5.69,2.18,5.95,5.56c0.42,5.22,0.67,10.48-0.35,15.67c-1.73,4.59-6.06,4.75-9.91,5.51c-7.2,1.42-14.56,2.02-21.55,4.48
		c-4.87,1.71-8.52,4.53-10.38,9.55c-4.01,10.81,1.34,19.71,12.82,21.27c11.81,1.6,29.25-4.37,35.46-19.54
		c0.85-1.38,1.42-2.95,2.55-4.17c3.2-1.72,5.43-0.87,7,2.38c1.95,4.04,4.77,5.19,9.26,3.38
		C454.82,601.44,468.56,605.41,470.45,608.49z"/>
	<path class="st2" d="M636.9,650.24c-0.96,24.26-13.71,41.21-37.26,47.52c-24.63,6.6-49.35,7.56-73.05-3.96
		c-12.45-6.05-20.9-15.53-23.19-29.7c-0.52-3.24-0.57-4.95,3.53-4.88c11.16,0.19,22.32,0.19,33.47-0.02
		c2.86-0.05,3.81,1.07,4.48,3.49c0.73,2.63,2.37,4.9,4.76,6.22c11.47,6.34,23.55,6.62,35.45,1.95c10.36-4.07,13.93-13.12,14.3-23.52
		c0.25-6.99,0.05-13.99,0.05-21.74c-4.03,4.54-6.54,9.4-12.92,12.66c3.34-17.32,2.35-34.51,13.69-48.57
		c7.34-0.64,14.49-0.21,20.75,4.2c2.74,1.93,5.77,1.83,8.84,2.06c2.73,0.21,5.89-0.51,7.53,2.75
		C637.1,615.9,637.9,633.08,636.9,650.24z"/>
	<path class="st2" d="M811.31,776.91c-10.27,0-20.54-0.02-30.81,0.01c-2.09,0.01-4.45-0.79-4.22,3.1
		c0.96,16.02,20.17,26.6,34.23,18.68c0.77-0.43,1.75-0.82,2.17-1.51c7.51-12.19,19.54-5.46,29.55-6.82
		c4.18-0.57,2.19,2.84,1.49,4.58c-6.77,16.98-19.94,25.68-37.72,27.56c-34.46,3.65-56.64-16.49-56.8-50.89
		c-0.06-11.27,1.5-22.09,6.88-32.1c9.23-17.2,28.04-25.72,49.5-22.59c21.16,3.09,34.33,14.96,38.75,34.87
		c1.4,6.3,1.47,12.74,2.19,19.11c0.6,5.29-1.62,6.29-6.42,6.11C830.52,776.66,820.91,776.91,811.31,776.91z"/>
	<path class="st2" d="M349.9,752.11c0-20.82,0.1-41.65-0.09-62.47c-0.04-4.1,0.71-6.04,5.36-5.56c7,0.71,16.44-2.9,20.42,1.44
		c3.48,3.81,1.09,13.02,1.1,19.85c0.04,36.33-0.06,72.67,0.12,109c0.02,4.48-0.81,6.34-5.72,5.89c-5.09-0.46-10.27-0.42-15.37-0.01
		c-4.56,0.36-6.02-0.84-5.95-5.67C350.07,793.77,349.9,772.94,349.9,752.11z"/>
	<path class="st2" d="M537.87,734.63c6.16-11.42,14.3-18.05,26.89-18.19c4.18-0.05,5.45,1.29,5.24,5.31
		c-0.3,5.74-0.31,11.53,0.01,17.27c0.22,4.04-0.86,5.6-5.17,5.01c-4.87-0.67-9.78-0.09-14.4,1.71c-7.99,3.11-11.47,9.48-12.09,17.54
		c-1.3,16.8-0.51,33.64-0.45,50.46c0.02,5.08-1.11,7.01-6.49,6.52c-5.53-0.51-11.14-0.24-16.71-0.06c-2.91,0.09-3.81-0.92-3.8-3.81
		c0.09-31.01,0.09-62.02,0-93.02c-0.01-3.11,0.92-4.35,4.17-4.23c5.57,0.2,11.17,0.34,16.71-0.04c4.31-0.29,5.43,1.34,5.17,5.3
		C536.75,727.41,536.25,730.54,537.87,734.63z"/>
	<path class="st2" d="M423.62,532.6c-7.88-1.89-15.89-2.26-23.83-0.88c-8.15,1.42-13.65,6.2-15.42,14.51
		c-0.69,3.25-2.12,4.62-5.8,4.48c-8.68-0.34-17.39-0.41-26.06,0c-5.19,0.24-5.85-1.76-5.12-6.17c4.12-24.76,17.42-37.77,43.72-42.16
		c16.5-2.76,32.88-1.94,49.04,2.39c0.8,0.21,1.48,0.89,2.21,1.35c1.68,2.37-0.39,3.5-1.6,4.99c-4.36,5.33-10.74,9.15-11.92,16.87
		C428.49,530.27,426.28,532.08,423.62,532.6z"/>
	<path class="st2" d="M518.67,516.41c15.71-20.77,62.75-27.41,81.6,4.85c1.71-5.19,0.67-9.95,0.83-14.58
		c0.09-2.6,0.43-4.21,3.64-4.06c10.65,0.49,21.34-0.74,31.98,0.64c1.3,3.16,0.34,6.46,0.61,9.67c-1.11,4.65-4.52,6.49-8.88,6.58
		c-4.24,0.09-7.67,1.57-11,4.11c-4.94,3.76-10.81,4.99-16.96,5c-11.5-9.84-24.3-15.16-39.85-12.09c-10.1,1.99-17.57,8.02-24.74,14.7
		C528.16,532.35,518.57,524.1,518.67,516.41z"/>
	<path class="st4" d="M465.11,522.12c3.66,4.47,5.18,9.87,5.28,15.35c0.28,15.68,0.07,31.38,0.05,47.07
		c-8.2,4.68-17.21,6.31-26.5,6.88c-3.2-3.39-1.9-7.59-2.14-11.52c-0.11-15.51-0.09-31.02-0.03-46.53c0.03-1.29,0.02-2.59,0.02-3.89
		c0.02-9.92,1.42-11.08,10.98-9.21C456.75,521.61,460.7,523.36,465.11,522.12z"/>
	<path class="st2" d="M539.95,592.53c5.35,6.81,6.72,14.6,8.23,23.06c1.5,8.36,1.96,16.66,3.17,24.93c0.85,5.83-1.85,4.02-4.27,3.49
		c-16.63-3.6-29.12-12.93-37.37-27.64c-2.68-4.77-5.46-9.66-5.85-15.36c-1.18-4.3,1.59-5.05,4.79-4.93
		c6.43,0.24,12.35,0.29,18.09-4.18C530.18,589.19,535.64,589.79,539.95,592.53z"/>
	<path class="st5" d="M636.5,514.02c0.08-3.58,0.15-7.17,0.23-10.75c2.34,1.66,1.11,4.08,1.12,6.09
		c0.09,43.68,0.07,87.37,0.07,131.05c0,3.31,0.13,6.64-1,9.84c-0.14-17.46-0.28-34.91-0.42-52.37c-2.46-3.45-1.61-7.39-1.67-11.19
		c-0.02-9.21-0.09-8.98-9.31-11.55c-5.2-1.45-10.88-1.71-15.39-5.22c3-9.33,2.63-18.56-0.85-27.7c0.35-0.63,0.85-1.1,1.49-1.4
		c6.38-1.62,12.71-3.47,19.13-4.99c3.09-0.73,5.33-2.12,4.87-5.79C634.92,524.64,633.73,519.12,636.5,514.02z"/>
	<path class="st6" d="M702.12,545.88c0.05,3.12-0.99,4.86-4.64,4.79c-9.54-0.18-19.1-0.1-28.64-0.03c-2.51,0.02-4.56-0.15-3.79-3.49
		c1.57-6.8,2.26-13.88,6.3-19.91c7.93-5.4,17.45-5.58,26.31-7.95c4.3,0.22,5.05,3.22,5.27,6.64
		C703.21,532.59,702.71,539.23,702.12,545.88z"/>
	<path class="st7" d="M698.11,609.83c-5.15-5.37-12.34-2.81-18.43-4.6c-6.09-1.8-12.72,0.29-18.82-2.06
		c-0.38-3.83,0.51-7.4,2.23-10.8c3.35-2.29,7.14-1.95,10.93-1.98c7.73-0.06,15.51,1.26,23.15-0.82c2.67-1.62,1.97-4.57,2.73-6.94
		c0.83-7.14,6.69-12.25,7.83-19.26c3.95-0.66,7.9-1.33,11.84-1.99c4.48,6.71-0.31,12.88-1.44,19.16c-0.4,2.25-1.29,4.01,0.31,5.97
		c-0.54,2.78-3.12,2.87-5.05,3.47c-7.98,2.45-12.88,7.27-13.4,15.88C699.9,607.36,699.61,608.91,698.11,609.83z"/>
	<path class="st4" d="M529.35,541.92c-3.5,9.19-3.75,18.53-1.32,27.99c-0.7,1.91-2.31,2.63-4.12,3.08
		c-5.34,1.46-10.72,2.81-16.11,4.09c-2.55,0.61-5.19,1.58-7.58-0.53c-0.89-14.25,0.25-28.2,6.43-41.37
		C514.51,536.48,522.39,537.67,529.35,541.92z"/>
	<path class="st8" d="M701.04,525.96c0.07-2.83,0.27-5.76-4.04-5.33c-4.45-0.72-8.74,1.2-13.16,0.75c-2.58-0.26-5.4,0.09-7.38-2.21
		c6.69-9.29,16.44-13.29,27.21-15.52c-3.16,5.82,1.36,5.59,4.45,4.79c4.87-1.26,6.66,0.12,6.31,4.91c-0.19,2.54,0.22,4.81,2.86,6.11
		c0.75,0.37,1.89,1.22,1.83,1.75c-1.14,10.77,6.91,8.44,12.91,9.07c0.39,0.04,0.73,0.46,1.1,0.7c-8.63,0.5-17.65-1.09-25.25,4.78
		C703.67,533.82,701.23,530.67,701.04,525.96z"/>
	<path class="st9" d="M443.69,580.55c0.61,3.52-1.32,7.36,1.35,10.63c8.51-0.27,17.1-2.26,25.4,1.34c0,1.77,0,3.55,0,5.32
		c-12.37,4.5-23.4,2.22-32.95-6.86c-2.09,2.16-1.04,5.12-2.86,6.93c-0.32,1.37-0.08,2.94-1.44,3.93c-3.5-3.93-1.93-8.7-1.88-13.07
		c0.05-4.55-0.21-7.71-6.05-6.01c-0.55,0.16-1.19-0.44-1.65-0.91c0-5.72-0.06-11.43,0.02-17.15c0.04-3.01-0.75-5.22-4.2-5.53
		c5.22-1.55,10.69-2.65,13.77-7.88c3.46,0.77,2.46,3.62,2.58,5.78c0.23,4.13,0.34,8.27,0.43,12.41c0.06,2.61,1.4,4.52,3.4,6.05
		C441.13,577.08,441.97,579.16,443.69,580.55z"/>
	<path class="st4" d="M701.04,583.2c-0.46,2.66,1.07,5.64-1.34,7.98c-8.76-0.53-17.21-2.71-25.66-4.84
		c-2.32-0.59-4.78-0.99-6.38-3.09c7.89-11.91,19.57-17.17,33.35-18.76C705.4,570.72,700.88,576.96,701.04,583.2z"/>
	<path class="st8" d="M636.49,585.9c0,3.99-0.01,7.98-0.01,11.98c-3.35-0.01-6.7-0.01-10.05-0.03c-1.34-0.01-3.36,0.45-3.91-0.22
		c-5.84-7.29-15.23-4.39-22.33-7.9c2.69-4.87,5.38-9.74,8.07-14.61c1.14-0.77,2.72-1.68,3.71-0.88
		C619.22,580.1,630.19,578.18,636.49,585.9z"/>
	<path class="st10" d="M539.95,592.53c-3.12,0-6.24-0.05-9.36,0.02c-1.31,0.03-3.46-0.09-3.79,0.57c-4.25,8.5-11.74,4.29-17.87,4.36
		c-3.12,0.04-4.6,0.59-5.08,3.53c-1.86-3.93-2.72-8.05-2.54-12.39c-1.44-2.74,0.55-4.21,2.5-4.03c10.09,0.92,17.43-6.87,26.8-8.01
		C532.2,582.77,537.7,586.71,539.95,592.53z"/>
	<path class="st7" d="M611.23,541.92c-0.66,0.1-1.31,0.2-1.97,0.3c-2.32-4.91-5.53-9.25-8.76-13.59c3.48-3.17,8.57-1.64,12.26-4.11
		c5.6-3.75,10.85-7.94,18.43-6.94c1.58,0.21,3.53-2.3,5.31-3.56c-0.01,5.74-0.02,11.48-0.02,17.22c-1.18,1.3-2.78,1.39-4.32,1.26
		C623.38,531.73,617.6,537.46,611.23,541.92z"/>
	<path class="st7" d="M423.62,532.6c2.37-3,3.65-6.31,4.95-9.97c1.67-4.67,6.55-8.3,10.34-12.09c1.38-1.37,3.44-2.03,3.46-4.41
		c5.46,0.98,10.62,2.49,13.63,7.75c-1.25,3.49-2.89,6.77-7.38,6.11c-5.35-0.78-7.43,1.44-7.18,6.56c0.07,1.53-0.28,3.08-1.06,4.47
		c-4.49,2.26-2.89,8.51-7.21,10.89C431.28,537.49,427.67,534.82,423.62,532.6z"/>
	<path class="st7" d="M434.63,597.91c-0.1-1.32-0.41-2.66-0.25-3.94c0.28-2.22-1.34-5.27,1.78-6.4c3.27-1.18,2.84,3.19,4.11,3.6
		c5.6,1.8,8.87,8.5,16.24,6.85c4.43-0.99,9.27-0.18,13.93-0.18c0,3.55,0,7.1,0.01,10.64c-1.91-3.78-5.37-1.61-8.13-2.04
		c-5.07-0.78-9.74-3.54-15.42-0.53c-3.53,1.87-6.87-2.25-7.48-5.32C438.68,596.81,436.51,598.23,434.63,597.91z"/>
	<path class="st11" d="M518.67,516.41c3.19,7.87,9.29,12.4,17.23,14.82c-1.74,2.67-3.48,5.34-5.23,8.01
		c-8.35,0.83-13.92-5.87-21.26-7.8c-0.54-0.14-0.54-1.09-0.14-1.7C511.17,524.43,514.48,520.12,518.67,516.41z"/>
	<path class="st12" d="M433.17,541.91c2.68-3.23-1.22-10.46,6.52-10.62c0.29,0.32,0.58,0.64,0.88,0.95
		c2.43,10.46,0.7,21.06,1.01,31.59c0.13,4.25,1.39,8.88-1.89,12.72c-4.07-0.38-5.49-2.55-5.45-6.62c0.06-6.21,0.55-12.49-1.04-18.63
		C433.19,548.17,433.18,545.04,433.17,541.91z"/>
	<path class="st13" d="M636.49,585.9c-3.19-0.16-6.88,0.79-8.08-3.7c-0.1-0.38-0.54-1.01-0.75-0.98c-7.45,1-13.24-3.14-19.4-6.11
		c0.61-1.73,1.23-3.46,1.84-5.2c8.36,0.54,16.21,3.46,24.14,5.66C639.04,576.91,635.83,582.36,636.49,585.9z"/>
	<path class="st14" d="M667.66,583.24c10.67,2.68,21.73,3.81,32.03,7.93c-6.62,2.28-13.48,1.15-20.25,1.31
		c-5.45,0.13-10.91-0.07-16.36-0.12C663.78,588.91,665.31,585.88,667.66,583.24z"/>
	<path class="st15" d="M530.61,576.58c-0.54,0.95-1.14,2.76-1.61,2.72c-7.77-0.55-12.33,8.34-20.57,6.72
		c-2.31-0.45-6.09-1.79-7.12,2.59c-1.31-2.56-1.13-5.32-1.09-8.07c1.52-1.59,3.54-1.81,5.53-1.74c7.3,0.24,12.14-5.33,18.37-7.56
		c1.3-0.44,2.61-0.88,3.91-1.32C529.3,571.98,530.51,574.07,530.61,576.58z"/>
	<path class="st16" d="M509.28,529.73c1.16,1.8,3.01,1.51,4.75,1.55c1.1,0.02,3.09-0.23,3.18,0.07c2,6.93,10.31,3.12,13.47,7.89
		c-0.44,0.89-0.88,1.79-1.32,2.68c-7.74-1.66-15.68-2.65-22.7-6.73C506.87,533.06,507.75,531.24,509.28,529.73z"/>
	<path class="st17" d="M470.44,592.52c-8.48-0.16-17.02,0.66-25.4-1.34c8.17-3.34,16.83-4.81,25.4-6.64
		C470.44,587.2,470.44,589.86,470.44,592.52z"/>
	<path class="st12" d="M439.69,531.28c0.01-2.44,0.02-4.87,0.02-7.31c0-2.53,1.08-4.9,3.71-4.48c5.64,0.89,8.99-2.43,12.58-5.62
		c3.99-0.41,4.46,3.71,6.92,5.28c-2.32,2.46-4.98,3.93-8.5,2.82c-10.68-0.74-10.68-0.74-10.72,10.63
		C441.88,533.6,440.83,532.33,439.69,531.28L439.69,531.28z"/>
	<path class="st18" d="M676.46,519.16c6.78,1.44,13.87-1.47,20.54,1.47c-8.55,2.2-17.1,4.4-25.65,6.6
		C672.28,524.06,673.96,521.36,676.46,519.16z"/>
	<path class="st18" d="M524.13,571.24c-0.13,0.86-0.27,2.49-0.39,2.48c-6.98-0.1-10.21,9.52-18.21,6.89
		c-1.6-0.53-3.53-0.07-5.31-0.07c0-1.33,0-2.65,0.01-3.98C508.44,575.88,516.12,572.83,524.13,571.24z"/>
	<path class="st16" d="M701.04,583.2c-0.01-6.24-0.02-12.48-0.03-18.72c2.07-1.35,4.38-1.3,6.71-1.11
		c-0.74,4.68,2.57,10.6-4.81,13.26C701.24,577.23,703.34,581.38,701.04,583.2z"/>
	<path class="st19" d="M701.04,525.96c0.34,4.61,6.52,5.18,6.84,9.79c-2.45,3.08-4.51,6.37-5.77,10.12
		C699.74,539.34,701.61,532.59,701.04,525.96z"/>
	<path class="st20" d="M535.42,135.75c-11.37,0.01-22.74,0.02-34.1,0.03c0.81-3.51,3.58-1.44,5.43-1.77
		c2.59-0.46,5.31,0.37,7.91-0.51C521.65,133.52,528.59,134.14,535.42,135.75z"/>
	<path class="st21" d="M554.96,479.64c1.34,4.15,4.93,1.7,7.42,2.48c-7.75,1.87-15.63,1.24-23.48,1.2
		C544.25,482.09,549.61,480.86,554.96,479.64z"/>
	<path class="st16" d="M454.42,521.97c3.07-0.23,5.13-3.47,8.5-2.82c1.12,0.71,1.94,1.63,2.19,2.97
		C461.47,527.71,457.97,523.1,454.42,521.97z"/>
	<path class="st22" d="M514.64,133.5c-4.08,2.87-9.27-0.69-13.33,2.28c-1.78-0.02-3.56-0.03-5.34-0.05
		c0.89-0.81,1.78-1.62,2.68-2.43C503.99,132.61,509.32,133.15,514.64,133.5z"/>
	<path class="st23" d="M520.51,483.33c5.21-1.85,10.43-2.08,15.63,0.02C530.94,483.34,525.73,483.33,520.51,483.33z"/>
	<path class="st7" d="M660.75,604.33c-0.01,2.81-0.02,5.63-0.04,8.44C659.77,609.95,659.69,607.14,660.75,604.33z"/>
	<path class="st24" d="M266.59,596.42c0.13,0.81-0.05,2.15-0.75,1.84c-1.68-0.74-1.75-2.62-1.91-4.27
		C264.81,594.81,265.7,595.62,266.59,596.42z"/>
	<path class="st0" d="M515.57,434.1c-70.51-0.78-125.43-55.44-125.22-125.47c0.21-68.69,54.81-123.65,125.74-124.47
		c68.47-0.8,126.43,57,125.57,125.42C640.77,379.65,586.54,432.64,515.57,434.1z"/>
	<path class="st25" d="M479.87,138.38c2.3-2.31,5.12-2.81,8.23-2.31C485.75,138.26,482.96,138.84,479.87,138.38z"/>
	<path class="st26" d="M469.12,141.08c1.55-1.55,3.32-2.57,5.63-2.27C473.82,141.88,471.33,141.14,469.12,141.08z"/>
	<path class="st27" d="M302.64,755.05c0.04,7.39,1.08,14.27-0.46,20.96c-3.65,15.89-27.29,27.03-42.17,20.1
		c-5.27-2.46-8.25-6.58-8.93-12.34c-1-8.48,3.09-15.55,11.13-18.59c3.31-1.25,6.8-2.2,10.29-2.77
		C282.59,760.79,292.7,759.33,302.64,755.05z"/>
	<path class="st0" d="M698.11,609.83c0.12-14.77,3.46-18.6,20.33-23.33c11-1.44,21.97-2.98,32.31-7.46
		c5.98,29.66-9.57,43.02-33.74,44.13C707.03,623.63,701.5,619.36,698.11,609.83z"/>
	<path class="st28" d="M459.7,772.02c3.04,19.39-4.72,30.14-22.14,31.44c-7.63,0.57-13.59-3.14-14.96-9.3
		c-1.57-7.06,2.32-13.01,10.14-15.45C441.59,775.95,451.18,776.42,459.7,772.02z"/>
	<path class="st0" d="M423.61,581.86c3.47,0.43,6.06-2.56,9.58-2.51c0,7.58,0,15.04,0,22.5c-6.94,15.8-19.91,21.58-36.32,21.27
		c-8.68-0.16-14.93-5.31-16.37-12.8c-1.81-9.35,2.02-17.03,10.26-20.68c8.87-3.93,18.64-3.79,27.86-6.17
		C420.32,583.02,422.18,583.11,423.61,581.86z"/>
	<path class="st29" d="M798.06,759.61c-5.58,0-11.17-0.21-16.73,0.07c-3.99,0.2-4.44-1.5-3.71-4.77
		c2.27-10.05,9.57-16.04,19.97-16.18c10.22-0.14,17.61,5.81,20.19,15.85c0.92,3.55,0.78,5.36-3.66,5.1
		C808.79,759.38,803.42,759.61,798.06,759.61z"/>
	<path class="st18" d="M439.69,531.29c1.34,0.44,2.67,0.88,4.01,1.32c0,15.98,0,31.96-0.01,47.94c-2.97,0.28-4.3-1.06-4-4
		C439.69,561.46,439.69,546.37,439.69,531.29z"/>
	<path class="st30" d="M611.23,541.92c-0.27-3.26,0.33-5.74,4.52-5.37c0.81,0.07,2.17-0.13,2.44-0.64
		c4.37-8.41,11.92-4.24,18.3-4.67c-0.05,2.06,1.04,4.7-2.23,5.29C626.48,537.93,619.19,541.37,611.23,541.92z"/>
	<path class="st2" d="M539.64,233.47c-6.89,9.84-9.63,20.19-6.36,31.7c6.58,23.16,33.21,33.39,53.5,20.17
		c4.65-3.03,5.47-1.5,6.66,2.67c12.41,43.4-15.56,89.46-60.33,99.17c-44.75,9.71-89.69-20.71-96.28-65.19
		c-7.23-48.84,28.28-91.14,77.81-92.67C521.53,229.1,532.95,230.92,539.64,233.47z"/>
</g>
</svg>
