<?xml version="1.0" encoding="utf-8"?>
<!-- Generator: Adobe Illustrator 25.0.0, SVG Export Plug-In . SVG Version: 6.00 Build 0)  -->
<svg version="1.1" id="Layer_1" xmlns="http://www.w3.org/2000/svg" xmlns:xlink="http://www.w3.org/1999/xlink" x="0px" y="0px"
	 viewBox="0 0 1000 1000" style="enable-background:new 0 0 1000 1000;" xml:space="preserve">
<style type="text/css">
	.st0{fill:#FFFFFF;stroke:#FF0000;stroke-width:10;stroke-miterlimit:10;}
	.st1{fill:#FEFEFE;}
	.st2{fill:#B21D1C;}
	.st3{fill:#1D1D1B;}
	.st4{fill:#B31D1C;}
	.st5{fill:#343432;}
	.st6{fill:#343433;}
	.st7{fill:#353533;}
	.st8{fill:#21211F;}
	.st9{fill:#20201E;}
	.st10{fill:#212220;}
	.st11{fill:#1F201D;}
	.st12{fill:#222220;}
	.st13{fill:#242522;}
	.st14{fill:#242422;}
	.st15{fill:#252624;}
	.st16{fill:#232421;}
	.st17{fill:#262624;}
	.st18{fill:#252524;}
	.st19{fill:#272725;}
	.st20{fill:#252623;}
	.st21{fill:#693636;}
	.st22{fill:#1E1C1B;}
	.st23{fill:#4B1614;}
	.st24{fill:#622B2B;}
	.st25{fill:#F3D2D2;}
	.st26{fill:#4F1C1C;}
	.st27{fill:#5A1D1C;}
	.st28{fill:#FEFDFD;}
	.st29{fill:#FDFDFD;}
	.st30{fill:#FCFCFC;}
	.st31{fill:#252523;}
</style>
<circle class="st0" cx="500" cy="500" r="478"/>
<g>
	<circle class="st1" cx="500" cy="500" r="478"/>
	<path class="st2" d="M670.8,236c-7.7-16.8-17.2-31.8-29.4-45.2c-18.4-20.2-40-35.9-66.5-44.9c-13-4.5-25.7-9.1-39.5-10.2
		c-0.2,0-0.4,0-0.6,0c-7.5-0.7-15-1-22.6-1.1c-3.3-0.1-6.6-0.1-9.9,0h-6c-2.6,0-5.2-0.1-7.8,0.2c-1.3,0.4-2.6,0.9-3.9,1.3
		c-0.7,0.2-1.3,0.4-2,0.6c0,0,0,0,0,0c-0.9,0.2-1.9,0.3-2.9,0.2c-1.7,0.1-3.3,0.2-4.9,0.8c-1.8,1.3-3.8,2-6.1,1.9
		c-2,0.1-3.9,0.6-5.8,1.2c-38,13.1-68.7,35.7-90.6,69.5c-4.6,7.1-10,14-12,22.6c0,0,0,0.1,0,0.1c0.4,2.1-0.8,3.8-1.5,5.6
		c-12.1,28.3-16.3,57.7-13.3,88.3c7,71.3,57.2,133.2,128.8,151.7c15.1,3.9,30.5,6.3,46.2,4.8c0.1,0,0.1,0,0.2,0c5.1-1,10.2-1,15.4,0
		h2.8c0.1,0,0.2,0,0.3,0c5.2-0.9,10.5-1.2,15.6-2c0.2,0,0.5,0,0.7,0c0.1,0,0.2,0,0.4,0c1.6-0.2,3.3-0.5,4.8-0.9
		c38.5-11.2,70.2-32.4,93.9-64.7c5-6.8,10.6-13.5,12.8-22.1c0-0.1,0-0.1,0-0.2c-1.2-3.2,1.9-4.8,2.9-7.1
		C692.4,336.1,693.9,286.4,670.8,236z M515.6,434.1c-70.5-0.8-125.4-55.4-125.2-125.5c0.2-68.7,54.8-123.7,125.7-124.5
		c68.5-0.8,126.4,57,125.6,125.4C640.8,379.6,586.5,432.6,515.6,434.1z"/>
	<path class="st3" d="M469.1,141.1c-16.6,4.2-31.8,11.6-46.1,20.9c-25.8,16.8-45.4,38.8-59.1,66.2c-0.9,1.7-2.4,3.2-3.6,4.7
		c-9.9,3.8-18.2,10.2-26.2,17c-22.4,19.1-43,40-62.1,62.3c-2.6,3-3.1,4.8,0,8.1c11.7,11.9,22.4,25.3,36.9,33.5
		c9.6,5.5,13.8,12.8,17.5,22.1c8.9,22,19.2,43.3,34.2,62c4.2,5.2,9,9.7,14.9,14c-2.4,1.5-4.2,0.7-6,0.2
		c-71-22.1-127.8-63.4-170.3-124.1c-1.4-2-2.5-3.7-0.6-6.4c52.5-77.1,117.1-139.9,206.8-172.8c29.9-11,61-16.6,93-15.6
		c0.7,2.6-1.9,1.5-2.7,2.4c-2.6,0.1-5.2,0.2-7.9,0.4c-2.7,0.9-5.5,1.3-8.2,2.3c-1.7,0.1-3.4,0.3-5.1,0.4
		C473.1,140.1,471,140.3,469.1,141.1z"/>
	<path class="st3" d="M555,479.6c22.9-5.6,43.8-15.3,62.7-29.3c20.1-15,36-33.4,47.8-55.4c0.4-0.7,1.3-1.2,2-1.7
		c11.2-4.7,20.8-11.9,30.5-19c19.7-14.5,38.5-30.2,56.4-47c3-2.8,3.5-4.7,0.8-8.1c-10.3-13.1-19.6-27.5-33.2-37.2
		c-9-6.4-12.5-14.2-15.1-23.8c-4.1-15.2-9.5-29.9-16.1-44.2c-6.2-13.3-13-26.1-24.4-36.1c2.9-1.5,5-0.2,7.2,0.7
		c67.5,29.3,119,76.1,154.7,140.2c1.4,2.6,1.9,4.5-0.3,7.1c-58,68.6-126.3,122.4-214.4,147.7c-16.7,4.8-33.7,8.4-51.3,8.6
		C555.9,483.2,555.9,483.2,555,479.6z"/>
	<path class="st4" d="M303.6,805c-12.6,13.1-27.4,18.8-44.4,19.2c-26.9,0.7-44.7-15.3-44.7-40.1c0-24.6,15.2-40.5,42-43.8
		c11.7-1.5,23.4-3.3,35.1-5.2c5.6-0.9,10.4-3.2,11.2-9.6c0.8-6.1-3.1-12.3-9.4-14.5c-8.6-3-17.5-3.1-26.3-0.6
		c-6.7,1.9-10.6,6.7-11.9,13.1c-0.8,3.7-2.4,4.6-5.8,4.5c-8.5-0.2-17-0.2-25.4,0c-3.6,0.1-5-0.4-4.4-4.7
		c3.1-23.8,17.1-38.4,41.2-41.8c17.1-2.4,34.2-3,50.9,2.7c18.6,6.4,26.9,17.9,26.9,37.4c0,23.7-0.2,47.5,0.1,71.2
		c0.1,7.8-0.6,16,6.9,21.9c2.1,1.7,2.5,5.6-2.6,5.5c-10.7,0-21.4-0.1-32.1,0.1c-2.9,0-4-1.3-4.6-3.7
		C305.3,813.3,304.6,809.8,303.6,805z"/>
	<path class="st2" d="M266.6,596.4c7-24,14-48,20.9-72c1-3.4,2.3-5.9,5.7-7.5c13.8-6.7,27.4-13.7,41.5-20.8
		c0.9,4.4-1.6,7.8-2.8,11.3c-15,44.4-30.3,88.8-45.4,133.2c-1.5,4.3-3.4,6.5-8.5,6.2c-9.1-0.5-18.3-0.3-27.4-0.1
		c-3.3,0.1-5.2-0.8-6.4-4.2c-20.6-61-41.3-122-62-183c-0.4-1.2-0.6-2.5-1.1-4.2c13.6,0,26.7,0,39.9,0c2.8,0,3.7,1.1,4.4,3.7
		c12.2,43,24.5,86,36.9,129c0.6,2-0.5,4.5,1.6,6.2C265.3,594.3,264.1,597.4,266.6,596.4z"/>
	<path class="st3" d="M660.8,604.3c-0.3-0.4-0.2-0.8,0.1-1.2c11.5-1.9,22.6,1,33.8,2.5c2.3,0.3,3.8,2.1,4.9,4.1
		c3.7,9.3,11,12.6,20.3,11.5c23.3-2.9,31.6-15.1,30.3-35.1c-0.3-4-1.9-4.2-5.2-3.2c-8.8,2.6-17.6,4.7-26.9,4.6
		c-2.4-1.6-2.7-3.9-1.9-6.4c2.2-6.4,2.7-13.1,3.3-19.8c6.8-1,13.5-2,20.3-3.1c6.2-1,11.2-3.4,11.8-10.5c0.6-6.5-3.4-12.4-10.1-14.8
		c-2.7-1-5.6-1.3-8.4-2c-1.7-0.6-3.5-0.5-5.3-0.3c-5.6,0.6-9.6-0.2-10.7-7.1c-0.6-3.8-4.2-7-5.2-11.2c-0.7-3.1-4.1-1.7-6.3-2.2
		c-4.5-1-4.9-2.3-2-6.5c18.1-3.8,36.2-4.3,54,0.9c21.8,6.4,31.1,18.8,31.1,41.3c0,24-0.1,47.9,0.1,71.9c0.1,8.2-1,16.9,7.2,23.1
		c1.9,1.4,2.1,5.6-2.8,5.6c-11.2,0-22.3-0.1-33.5,0c-2.8,0-4-1.2-4.5-3.7c-0.8-3.7-1.6-7.3-2.4-11.2c-2.4-0.6-3.1,1.8-4.5,3
		C730,650.3,709,654,686.4,647.1c-16-4.9-25.3-18.3-25.7-34.3C659.9,610,659.8,607.1,660.8,604.3z"/>
	<path class="st3" d="M612.7,731.1c16.2-21.5,44.8-17.8,56.3,0.4c5.6-6.3,11.2-12.3,20-14.2c23.4-4.9,42.1,9.7,42.1,33.4
		c0,21.1-0.1,42.1,0.1,63.2c0,4.6-0.5,7-6,6.4c-6.8-0.8-15.9,2.8-19.8-1.5c-3.4-3.8-1.1-12.6-1.1-19.3c-0.1-12.6,0-25.3,0-37.9
		c0-2.9-0.1-5.8-0.5-8.6c-1.2-9.1-6.1-13.7-14.2-13.8c-9-0.1-15.6,5.1-16.8,13.8c-0.7,5-0.6,10.2-0.6,15.2
		c-0.1,15.5-0.2,31,0.1,46.6c0.1,4.5-1.3,5.7-5.6,5.4c-5.6-0.4-11.2-0.4-16.7,0c-4.3,0.3-5.1-1.3-5.1-5.3c0.2-20,0.2-39.9,0-59.9
		c-0.1-12.6-9-18.8-21.2-15.1c-6.1,1.8-8.9,6.2-10,12c-1.7,9.7-0.8,19.5-0.9,29.2c-0.2,11.3-0.2,22.6,0.1,33.9
		c0.1,4.2-1.2,5.3-5.2,5.1c-5.6-0.3-11.2-0.4-16.7,0c-4.4,0.3-5-1.5-5-5.3c0.2-30.2,0.2-60.3,0-90.5c0-3.9,0.8-5.9,5.1-5.3
		c2,0.3,4,0,6,0c4.5,0,9.5-1.3,13.2,0.4C614.4,721.5,610.3,727.5,612.7,731.1z"/>
	<path class="st3" d="M460.8,809.4c-12.2,11.3-26,15.5-41.7,12.4c-13.6-2.7-22.1-11.7-23.5-24.6c-1.6-15.1,5.3-27.5,18.3-32.9
		c8.6-3.6,17.8-3.8,26.8-5.3c3.7-0.7,7.5-0.8,11.2-1.6c4-0.8,8-2.2,8.4-7.2s-2-8.5-6.5-10.5c-11.5-5.2-23.4-1.1-28.6,10.2
		c-1.1,2.3-2.4,2.1-4.1,2.1c-6,0-12.1-0.2-18.1,0.1c-4.1,0.2-4.1-1.6-3.7-4.8c1.8-14,10.3-24.6,23.9-28.1
		c14.5-3.7,29.1-4.2,43.5,0.6c13.8,4.7,19.9,12.7,20,27.2c0.2,17.7,0,35.5,0.1,53.2c0,5.5,0,10.9,4.6,15.3c2.6,2.4,1.7,4.8-2.5,4.7
		c-4.7-0.1-9.4,0-14.1,0C463.9,820.2,463.9,820.2,460.8,809.4z"/>
	<path class="st3" d="M470.5,608.5c0.1,4.4,0,8.8,0.3,13.3c0.5,6.8,0.2,13.9,6.9,18.5c1.9,1.3,1.3,3.3,1,4.8
		c-0.4,2.1-2.5,1.3-3.9,1.4c-10,0.1-20.1-0.2-30.1,0.1c-4.9,0.2-7.5-1-8-6.2c-0.3-3-1.2-5.9-2.1-9.8c-9.8,9.9-20.7,16.3-33.8,18.5
		c-9.3,1.5-18.6,1.8-27.8-0.5c-18-4.5-28.4-16.4-30.7-34.9c-2.3-18.2,6.5-35.5,21.9-43.6c13-6.8,27.5-6.9,41.4-9.4
		c4.6-0.8,9.3-1,13.9-1.5c4.8-1.1,5.7,2.2,6,5.6c0.4,5.2,0.7,10.5-0.4,15.7c-1.7,4.6-6.1,4.8-9.9,5.5c-7.2,1.4-14.6,2-21.5,4.5
		c-4.9,1.7-8.5,4.5-10.4,9.5c-4,10.8,1.3,19.7,12.8,21.3c11.8,1.6,29.2-4.4,35.5-19.5c0.9-1.4,1.4-3,2.5-4.2c3.2-1.7,5.4-0.9,7,2.4
		c2,4,4.8,5.2,9.3,3.4C454.8,601.4,468.6,605.4,470.5,608.5z"/>
	<path class="st3" d="M636.9,650.2c-1,24.3-13.7,41.2-37.3,47.5c-24.6,6.6-49.3,7.6-73-4c-12.5-6-20.9-15.5-23.2-29.7
		c-0.5-3.2-0.6-5,3.5-4.9c11.2,0.2,22.3,0.2,33.5,0c2.9,0,3.8,1.1,4.5,3.5c0.7,2.6,2.4,4.9,4.8,6.2c11.5,6.3,23.5,6.6,35.5,2
		c10.4-4.1,13.9-13.1,14.3-23.5c0.2-7,0-14,0-21.7c-4,4.5-6.5,9.4-12.9,12.7c3.3-17.3,2.3-34.5,13.7-48.6c7.3-0.6,14.5-0.2,20.8,4.2
		c2.7,1.9,5.8,1.8,8.8,2.1c2.7,0.2,5.9-0.5,7.5,2.8C637.1,615.9,637.9,633.1,636.9,650.2z"/>
	<path class="st3" d="M811.3,776.9c-10.3,0-20.5,0-30.8,0c-2.1,0-4.5-0.8-4.2,3.1c1,16,20.2,26.6,34.2,18.7c0.8-0.4,1.8-0.8,2.2-1.5
		c7.5-12.2,19.5-5.5,29.5-6.8c4.2-0.6,2.2,2.8,1.5,4.6c-6.8,17-19.9,25.7-37.7,27.6c-34.5,3.7-56.6-16.5-56.8-50.9
		c-0.1-11.3,1.5-22.1,6.9-32.1c9.2-17.2,28-25.7,49.5-22.6c21.2,3.1,34.3,15,38.8,34.9c1.4,6.3,1.5,12.7,2.2,19.1
		c0.6,5.3-1.6,6.3-6.4,6.1C830.5,776.7,820.9,776.9,811.3,776.9z"/>
	<path class="st3" d="M349.9,752.1c0-20.8,0.1-41.7-0.1-62.5c0-4.1,0.7-6,5.4-5.6c7,0.7,16.4-2.9,20.4,1.4c3.5,3.8,1.1,13,1.1,19.8
		c0,36.3-0.1,72.7,0.1,109c0,4.5-0.8,6.3-5.7,5.9c-5.1-0.5-10.3-0.4-15.4,0c-4.6,0.4-6-0.8-6-5.7
		C350.1,793.8,349.9,772.9,349.9,752.1z"/>
	<path class="st3" d="M537.9,734.6c6.2-11.4,14.3-18,26.9-18.2c4.2,0,5.5,1.3,5.2,5.3c-0.3,5.7-0.3,11.5,0,17.3c0.2,4-0.9,5.6-5.2,5
		c-4.9-0.7-9.8-0.1-14.4,1.7c-8,3.1-11.5,9.5-12.1,17.5c-1.3,16.8-0.5,33.6-0.5,50.5c0,5.1-1.1,7-6.5,6.5
		c-5.5-0.5-11.1-0.2-16.7-0.1c-2.9,0.1-3.8-0.9-3.8-3.8c0.1-31,0.1-62,0-93c0-3.1,0.9-4.3,4.2-4.2c5.6,0.2,11.2,0.3,16.7,0
		c4.3-0.3,5.4,1.3,5.2,5.3C536.8,727.4,536.2,730.5,537.9,734.6z"/>
	<path class="st3" d="M423.6,532.6c-7.9-1.9-15.9-2.3-23.8-0.9c-8.1,1.4-13.6,6.2-15.4,14.5c-0.7,3.2-2.1,4.6-5.8,4.5
		c-8.7-0.3-17.4-0.4-26.1,0c-5.2,0.2-5.9-1.8-5.1-6.2c4.1-24.8,17.4-37.8,43.7-42.2c16.5-2.8,32.9-1.9,49,2.4
		c0.8,0.2,1.5,0.9,2.2,1.4c1.7,2.4-0.4,3.5-1.6,5c-4.4,5.3-10.7,9.2-11.9,16.9C428.5,530.3,426.3,532.1,423.6,532.6z"/>
	<path class="st3" d="M518.7,516.4c15.7-20.8,62.8-27.4,81.6,4.8c1.7-5.2,0.7-10,0.8-14.6c0.1-2.6,0.4-4.2,3.6-4.1
		c10.7,0.5,21.3-0.7,32,0.6c1.3,3.2,0.3,6.5,0.6,9.7c-1.1,4.7-4.5,6.5-8.9,6.6c-4.2,0.1-7.7,1.6-11,4.1c-4.9,3.8-10.8,5-17,5
		c-11.5-9.8-24.3-15.2-39.8-12.1c-10.1,2-17.6,8-24.7,14.7C528.2,532.3,518.6,524.1,518.7,516.4z"/>
	<path class="st5" d="M465.1,522.1c3.7,4.5,5.2,9.9,5.3,15.3c0.3,15.7,0.1,31.4,0,47.1c-8.2,4.7-17.2,6.3-26.5,6.9
		c-3.2-3.4-1.9-7.6-2.1-11.5c-0.1-15.5-0.1-31,0-46.5c0-1.3,0-2.6,0-3.9c0-9.9,1.4-11.1,11-9.2C456.8,521.6,460.7,523.4,465.1,522.1
		z"/>
	<path class="st3" d="M540,592.5c5.3,6.8,6.7,14.6,8.2,23.1c1.5,8.4,2,16.7,3.2,24.9c0.8,5.8-1.8,4-4.3,3.5
		c-16.6-3.6-29.1-12.9-37.4-27.6c-2.7-4.8-5.5-9.7-5.9-15.4c-1.2-4.3,1.6-5,4.8-4.9c6.4,0.2,12.3,0.3,18.1-4.2
		C530.2,589.2,535.6,589.8,540,592.5z"/>
	<path class="st6" d="M636.5,514c0.1-3.6,0.2-7.2,0.2-10.8c2.3,1.7,1.1,4.1,1.1,6.1c0.1,43.7,0.1,87.4,0.1,131.1
		c0,3.3,0.1,6.6-1,9.8c-0.1-17.5-0.3-34.9-0.4-52.4c-2.5-3.5-1.6-7.4-1.7-11.2c0-9.2-0.1-9-9.3-11.5c-5.2-1.5-10.9-1.7-15.4-5.2
		c3-9.3,2.6-18.6-0.8-27.7c0.3-0.6,0.8-1.1,1.5-1.4c6.4-1.6,12.7-3.5,19.1-5c3.1-0.7,5.3-2.1,4.9-5.8
		C634.9,524.6,633.7,519.1,636.5,514z"/>
	<path class="st7" d="M702.1,545.9c0,3.1-1,4.9-4.6,4.8c-9.5-0.2-19.1-0.1-28.6,0c-2.5,0-4.6-0.2-3.8-3.5c1.6-6.8,2.3-13.9,6.3-19.9
		c7.9-5.4,17.5-5.6,26.3-8c4.3,0.2,5,3.2,5.3,6.6C703.2,532.6,702.7,539.2,702.1,545.9z"/>
	<path class="st8" d="M698.1,609.8c-5.2-5.4-12.3-2.8-18.4-4.6c-6.1-1.8-12.7,0.3-18.8-2.1c-0.4-3.8,0.5-7.4,2.2-10.8
		c3.3-2.3,7.1-2,10.9-2c7.7-0.1,15.5,1.3,23.2-0.8c2.7-1.6,2-4.6,2.7-6.9c0.8-7.1,6.7-12.2,7.8-19.3c4-0.7,7.9-1.3,11.8-2
		c4.5,6.7-0.3,12.9-1.4,19.2c-0.4,2.2-1.3,4,0.3,6c-0.5,2.8-3.1,2.9-5,3.5c-8,2.5-12.9,7.3-13.4,15.9
		C699.9,607.4,699.6,608.9,698.1,609.8z"/>
	<path class="st5" d="M529.3,541.9c-3.5,9.2-3.8,18.5-1.3,28c-0.7,1.9-2.3,2.6-4.1,3.1c-5.3,1.5-10.7,2.8-16.1,4.1
		c-2.5,0.6-5.2,1.6-7.6-0.5c-0.9-14.2,0.2-28.2,6.4-41.4C514.5,536.5,522.4,537.7,529.3,541.9z"/>
	<path class="st9" d="M701,526c0.1-2.8,0.3-5.8-4-5.3c-4.5-0.7-8.7,1.2-13.2,0.8c-2.6-0.3-5.4,0.1-7.4-2.2
		c6.7-9.3,16.4-13.3,27.2-15.5c-3.2,5.8,1.4,5.6,4.5,4.8c4.9-1.3,6.7,0.1,6.3,4.9c-0.2,2.5,0.2,4.8,2.9,6.1c0.8,0.4,1.9,1.2,1.8,1.8
		c-1.1,10.8,6.9,8.4,12.9,9.1c0.4,0,0.7,0.5,1.1,0.7c-8.6,0.5-17.7-1.1-25.2,4.8C703.7,533.8,701.2,530.7,701,526z"/>
	<path class="st10" d="M443.7,580.5c0.6,3.5-1.3,7.4,1.4,10.6c8.5-0.3,17.1-2.3,25.4,1.3c0,1.8,0,3.5,0,5.3
		c-12.4,4.5-23.4,2.2-33-6.9c-2.1,2.2-1,5.1-2.9,6.9c-0.3,1.4-0.1,2.9-1.4,3.9c-3.5-3.9-1.9-8.7-1.9-13.1c0-4.5-0.2-7.7-6-6
		c-0.5,0.2-1.2-0.4-1.6-0.9c0-5.7-0.1-11.4,0-17.2c0-3-0.8-5.2-4.2-5.5c5.2-1.5,10.7-2.7,13.8-7.9c3.5,0.8,2.5,3.6,2.6,5.8
		c0.2,4.1,0.3,8.3,0.4,12.4c0.1,2.6,1.4,4.5,3.4,6C441.1,577.1,442,579.2,443.7,580.5z"/>
	<path class="st5" d="M701,583.2c-0.5,2.7,1.1,5.6-1.3,8c-8.8-0.5-17.2-2.7-25.7-4.8c-2.3-0.6-4.8-1-6.4-3.1
		c7.9-11.9,19.6-17.2,33.3-18.8C705.4,570.7,700.9,577,701,583.2z"/>
	<path class="st9" d="M636.5,585.9c0,4,0,8,0,12c-3.3,0-6.7,0-10,0c-1.3,0-3.4,0.5-3.9-0.2c-5.8-7.3-15.2-4.4-22.3-7.9
		c2.7-4.9,5.4-9.7,8.1-14.6c1.1-0.8,2.7-1.7,3.7-0.9C619.2,580.1,630.2,578.2,636.5,585.9z"/>
	<path class="st11" d="M540,592.5c-3.1,0-6.2,0-9.4,0c-1.3,0-3.5-0.1-3.8,0.6c-4.2,8.5-11.7,4.3-17.9,4.4c-3.1,0-4.6,0.6-5.1,3.5
		c-1.9-3.9-2.7-8-2.5-12.4c-1.4-2.7,0.5-4.2,2.5-4c10.1,0.9,17.4-6.9,26.8-8C532.2,582.8,537.7,586.7,540,592.5z"/>
	<path class="st8" d="M611.2,541.9c-0.7,0.1-1.3,0.2-2,0.3c-2.3-4.9-5.5-9.2-8.8-13.6c3.5-3.2,8.6-1.6,12.3-4.1
		c5.6-3.8,10.8-7.9,18.4-6.9c1.6,0.2,3.5-2.3,5.3-3.6c0,5.7,0,11.5,0,17.2c-1.2,1.3-2.8,1.4-4.3,1.3
		C623.4,531.7,617.6,537.5,611.2,541.9z"/>
	<path class="st8" d="M423.6,532.6c2.4-3,3.6-6.3,5-10c1.7-4.7,6.5-8.3,10.3-12.1c1.4-1.4,3.4-2,3.5-4.4c5.5,1,10.6,2.5,13.6,7.8
		c-1.2,3.5-2.9,6.8-7.4,6.1c-5.4-0.8-7.4,1.4-7.2,6.6c0.1,1.5-0.3,3.1-1.1,4.5c-4.5,2.3-2.9,8.5-7.2,10.9
		C431.3,537.5,427.7,534.8,423.6,532.6z"/>
	<path class="st8" d="M434.6,597.9c-0.1-1.3-0.4-2.7-0.2-3.9c0.3-2.2-1.3-5.3,1.8-6.4c3.3-1.2,2.8,3.2,4.1,3.6
		c5.6,1.8,8.9,8.5,16.2,6.8c4.4-1,9.3-0.2,13.9-0.2c0,3.5,0,7.1,0,10.6c-1.9-3.8-5.4-1.6-8.1-2c-5.1-0.8-9.7-3.5-15.4-0.5
		c-3.5,1.9-6.9-2.2-7.5-5.3C438.7,596.8,436.5,598.2,434.6,597.9z"/>
	<path class="st12" d="M518.7,516.4c3.2,7.9,9.3,12.4,17.2,14.8c-1.7,2.7-3.5,5.3-5.2,8c-8.3,0.8-13.9-5.9-21.3-7.8
		c-0.5-0.1-0.5-1.1-0.1-1.7C511.2,524.4,514.5,520.1,518.7,516.4z"/>
	<path class="st13" d="M433.2,541.9c2.7-3.2-1.2-10.5,6.5-10.6c0.3,0.3,0.6,0.6,0.9,1c2.4,10.5,0.7,21.1,1,31.6
		c0.1,4.2,1.4,8.9-1.9,12.7c-4.1-0.4-5.5-2.5-5.5-6.6c0.1-6.2,0.5-12.5-1-18.6C433.2,548.2,433.2,545,433.2,541.9z"/>
	<path class="st14" d="M636.5,585.9c-3.2-0.2-6.9,0.8-8.1-3.7c-0.1-0.4-0.5-1-0.8-1c-7.5,1-13.2-3.1-19.4-6.1
		c0.6-1.7,1.2-3.5,1.8-5.2c8.4,0.5,16.2,3.5,24.1,5.7C639,576.9,635.8,582.4,636.5,585.9z"/>
	<path class="st15" d="M667.7,583.2c10.7,2.7,21.7,3.8,32,7.9c-6.6,2.3-13.5,1.2-20.2,1.3c-5.5,0.1-10.9-0.1-16.4-0.1
		C663.8,588.9,665.3,585.9,667.7,583.2z"/>
	<path class="st16" d="M530.6,576.6c-0.5,1-1.1,2.8-1.6,2.7c-7.8-0.5-12.3,8.3-20.6,6.7c-2.3-0.5-6.1-1.8-7.1,2.6
		c-1.3-2.6-1.1-5.3-1.1-8.1c1.5-1.6,3.5-1.8,5.5-1.7c7.3,0.2,12.1-5.3,18.4-7.6c1.3-0.4,2.6-0.9,3.9-1.3
		C529.3,572,530.5,574.1,530.6,576.6z"/>
	<path class="st17" d="M509.3,529.7c1.2,1.8,3,1.5,4.8,1.5c1.1,0,3.1-0.2,3.2,0.1c2,6.9,10.3,3.1,13.5,7.9c-0.4,0.9-0.9,1.8-1.3,2.7
		c-7.7-1.7-15.7-2.7-22.7-6.7C506.9,533.1,507.8,531.2,509.3,529.7z"/>
	<path class="st18" d="M470.4,592.5c-8.5-0.2-17,0.7-25.4-1.3c8.2-3.3,16.8-4.8,25.4-6.6C470.4,587.2,470.4,589.9,470.4,592.5z"/>
	<path class="st13" d="M439.7,531.3c0-2.4,0-4.9,0-7.3c0-2.5,1.1-4.9,3.7-4.5c5.6,0.9,9-2.4,12.6-5.6c4-0.4,4.5,3.7,6.9,5.3
		c-2.3,2.5-5,3.9-8.5,2.8c-10.7-0.7-10.7-0.7-10.7,10.6C441.9,533.6,440.8,532.3,439.7,531.3L439.7,531.3z"/>
	<path class="st19" d="M676.5,519.2c6.8,1.4,13.9-1.5,20.5,1.5c-8.5,2.2-17.1,4.4-25.7,6.6C672.3,524.1,674,521.4,676.5,519.2z"/>
	<path class="st19" d="M524.1,571.2c-0.1,0.9-0.3,2.5-0.4,2.5c-7-0.1-10.2,9.5-18.2,6.9c-1.6-0.5-3.5-0.1-5.3-0.1c0-1.3,0-2.7,0-4
		C508.4,575.9,516.1,572.8,524.1,571.2z"/>
	<path class="st17" d="M701,583.2c0-6.2,0-12.5,0-18.7c2.1-1.3,4.4-1.3,6.7-1.1c-0.7,4.7,2.6,10.6-4.8,13.3
		C701.2,577.2,703.3,581.4,701,583.2z"/>
	<path class="st20" d="M701,526c0.3,4.6,6.5,5.2,6.8,9.8c-2.5,3.1-4.5,6.4-5.8,10.1C699.7,539.3,701.6,532.6,701,526z"/>
	<path class="st21" d="M535.4,135.8c-11.4,0-22.7,0-34.1,0c0.8-3.5,3.6-1.4,5.4-1.8c2.6-0.5,5.3,0.4,7.9-0.5
		C521.7,133.5,528.6,134.1,535.4,135.8z"/>
	<path class="st22" d="M555,479.6c1.3,4.1,4.9,1.7,7.4,2.5c-7.8,1.9-15.6,1.2-23.5,1.2C544.2,482.1,549.6,480.9,555,479.6z"/>
	<path class="st17" d="M454.4,522c3.1-0.2,5.1-3.5,8.5-2.8c1.1,0.7,1.9,1.6,2.2,3C461.5,527.7,458,523.1,454.4,522z"/>
	<path class="st23" d="M514.6,133.5c-4.1,2.9-9.3-0.7-13.3,2.3c-1.8,0-3.6,0-5.3-0.1c0.9-0.8,1.8-1.6,2.7-2.4
		C504,132.6,509.3,133.1,514.6,133.5z"/>
	<path class="st24" d="M520.5,483.3c5.2-1.9,10.4-2.1,15.6,0C530.9,483.3,525.7,483.3,520.5,483.3z"/>
	<path class="st8" d="M660.8,604.3c0,2.8,0,5.6,0,8.4C659.8,610,659.7,607.1,660.8,604.3z"/>
	<path class="st25" d="M266.6,596.4c0.1,0.8,0,2.2-0.8,1.8c-1.7-0.7-1.8-2.6-1.9-4.3C264.8,594.8,265.7,595.6,266.6,596.4z"/>
	<path class="st26" d="M479.9,138.4c2.3-2.3,5.1-2.8,8.2-2.3C485.8,138.3,483,138.8,479.9,138.4z"/>
	<path class="st27" d="M469.1,141.1c1.5-1.6,3.3-2.6,5.6-2.3C473.8,141.9,471.3,141.1,469.1,141.1z"/>
	<path class="st28" d="M302.6,755c0,7.4,1.1,14.3-0.5,21c-3.6,15.9-27.3,27-42.2,20.1c-5.3-2.5-8.2-6.6-8.9-12.3
		c-1-8.5,3.1-15.5,11.1-18.6c3.3-1.2,6.8-2.2,10.3-2.8C282.6,760.8,292.7,759.3,302.6,755z"/>
	<path class="st1" d="M698.1,609.8c0.1-14.8,3.5-18.6,20.3-23.3c11-1.4,22-3,32.3-7.5c6,29.7-9.6,43-33.7,44.1
		C707,623.6,701.5,619.4,698.1,609.8z"/>
	<path class="st29" d="M459.7,772c3,19.4-4.7,30.1-22.1,31.4c-7.6,0.6-13.6-3.1-15-9.3c-1.6-7.1,2.3-13,10.1-15.5
		C441.6,776,451.2,776.4,459.7,772z"/>
	<path class="st1" d="M423.6,581.9c3.5,0.4,6.1-2.6,9.6-2.5c0,7.6,0,15,0,22.5c-6.9,15.8-19.9,21.6-36.3,21.3
		c-8.7-0.2-14.9-5.3-16.4-12.8c-1.8-9.3,2-17,10.3-20.7c8.9-3.9,18.6-3.8,27.9-6.2C420.3,583,422.2,583.1,423.6,581.9z"/>
	<path class="st30" d="M798.1,759.6c-5.6,0-11.2-0.2-16.7,0.1c-4,0.2-4.4-1.5-3.7-4.8c2.3-10,9.6-16,20-16.2
		c10.2-0.1,17.6,5.8,20.2,15.8c0.9,3.5,0.8,5.4-3.7,5.1C808.8,759.4,803.4,759.6,798.1,759.6z"/>
	<path class="st19" d="M439.7,531.3c1.3,0.4,2.7,0.9,4,1.3c0,16,0,32,0,47.9c-3,0.3-4.3-1.1-4-4
		C439.7,561.5,439.7,546.4,439.7,531.3z"/>
	<path class="st31" d="M611.2,541.9c-0.3-3.3,0.3-5.7,4.5-5.4c0.8,0.1,2.2-0.1,2.4-0.6c4.4-8.4,11.9-4.2,18.3-4.7
		c0,2.1,1,4.7-2.2,5.3C626.5,537.9,619.2,541.4,611.2,541.9z"/>
	<path class="st3" d="M539.6,233.5c-6.9,9.8-9.6,20.2-6.4,31.7c6.6,23.2,33.2,33.4,53.5,20.2c4.7-3,5.5-1.5,6.7,2.7
		c12.4,43.4-15.6,89.5-60.3,99.2c-44.8,9.7-89.7-20.7-96.3-65.2c-7.2-48.8,28.3-91.1,77.8-92.7C521.5,229.1,533,230.9,539.6,233.5z"
		/>
</g>
</svg>
